<svg width="93" height="101" viewBox="0 0 93 101" fill="none" xmlns="http://www.w3.org/2000/svg">
<path d="M9 36.5C9 16.3416 25.3416 0 45.5 0C66.2107 0 83 16.7893 83 37.5V45.5699C83 54.3281 84.1506 63.0483 86.4221 71.5067L89.7116 83.7554C90.8884 88.1373 86.09 91.6952 82.2389 89.2961L75.1351 84.8705C72.8342 83.4371 69.8101 84.0984 68.3175 86.3613L62.9328 94.5248C61.0216 97.4222 56.8121 97.5386 54.7437 94.7513L49.3737 87.5146C47.4174 84.8784 43.4945 84.8107 41.4484 87.3778L35.5729 94.7495C33.3763 97.5056 29.0942 97.1849 27.3325 94.1325L23.304 87.1527C21.8102 84.5646 18.3948 83.856 15.9948 85.6362L10.9283 89.3941C7.19134 92.1659 2.02634 88.7787 3.07931 84.2467L6.40543 69.9311C8.1295 62.5107 9 54.9176 9 47.2996V36.5Z" fill="black"/>
<path d="M18.5039 44.2949C18.5412 46.0035 19.6481 48.804 21.9355 52.2266C24.1969 55.61 27.4027 59.2964 31.1133 62.6211C34.8262 65.9478 38.9823 68.8568 43.125 70.7432C47.2862 72.6379 51.272 73.4288 54.7363 72.7715C60.8797 71.6057 64.1297 68.5099 65.8203 65.1182C67.5416 61.6649 67.7294 57.7181 67.3096 54.8076C67.0903 53.9879 66.9011 53.4075 66.7383 53.0049C66.4347 53.2345 66.0626 53.5417 65.5615 53.9551C62.7585 56.2679 57.9266 60.1014 49.041 60.1016C44.4859 60.1016 40.0685 58.4942 36.1035 56.3857C32.1303 54.2729 28.4643 51.5761 25.4121 49.25C23.8639 48.0701 22.5068 47.0108 21.292 46.1201C20.1238 45.2636 19.204 44.6521 18.5039 44.2949Z" fill="white" stroke="black" stroke-width="4"/>
</svg>
